<svg id="Layer_1" enable-background="new 0 0 128 128" height="512" viewBox="0 0 128 128" width="512" xmlns="http://www.w3.org/2000/svg"><g><g fill="#e6e7e8"><path d="m54.143 52.378c5.977-4.899 9.181-10.952 8.361-15.798-.39-2.309-1.894-5.441-6.837-7.255-5.654-2.075-16.142-.428-23.876 3.747-4.148 2.24-9.396 6.21-10.84 12.403-2.788 11.966 1.241 17.032 5.136 21.931 1.624 2.042 3.304 4.154 4.498 6.785 1.195 2.629.533 9.175.138 13.086-.142 1.401-.253 2.509-.27 3.227-.016.671-.024 6.675 4.344 10.661 2.401 2.191 5.598 3.295 9.528 3.295.865 0 1.767-.054 2.703-.161 8.962-1.027 10.942-8.022 11.324-12.101.483-5.151-1.145-10.32-4.584-14.556-4.494-5.53-5.403-6.978-5.586-7.344-.046-.092-4.335-9.481 5.961-17.92z"/><path d="m30.685 28.42c.95.969 2.075 1.481 3.22 1.481.203 0 .406-.017.609-.049 1.352-.215 2.486-1.122 3.194-2.554.652-1.317.866-2.947.604-4.589-.57-3.574-3.127-6.042-5.833-5.607-2.7.432-4.368 3.569-3.797 7.144.262 1.643.974 3.125 2.003 4.174z"/><ellipse cx="44.171" cy="19.896" rx="5.722" ry="7.575"/><path d="m58.22 7.539c-4.246 0-7.7 4.634-7.7 10.33 0 5.695 3.454 10.329 7.7 10.329s7.7-4.634 7.7-10.329c0-5.696-3.454-10.33-7.7-10.33z"/><path d="m26.638 33.785c.343 0 .687-.058 1.021-.178.977-.352 1.722-1.213 2.043-2.363.292-1.046.226-2.253-.187-3.401-.413-1.147-1.13-2.12-2.021-2.74-.98-.684-2.104-.871-3.08-.521-1.951.701-2.766 3.233-1.856 5.765.753 2.095 2.421 3.438 4.08 3.438z"/><path d="m21.548 39.06c.977-.352 1.721-1.213 2.043-2.363.292-1.046.226-2.253-.187-3.401-.413-1.147-1.13-2.12-2.021-2.74-.981-.684-2.103-.871-3.08-.521-1.951.701-2.766 3.233-1.856 5.765.754 2.096 2.421 3.439 4.081 3.439.342-.002.685-.059 1.02-.179z"/><path d="m100.21 53.072c-7.734-4.175-18.221-5.823-23.877-3.747-4.943 1.813-6.447 4.946-6.837 7.255-.819 4.845 2.385 10.898 8.362 15.798 10.295 8.438 6.006 17.828 5.96 17.921-.183.366-1.093 1.813-5.586 7.345-3.439 4.235-5.067 9.404-4.585 14.555.384 4.078 2.363 11.074 11.324 12.101.937.107 1.838.161 2.704.161 3.93 0 7.128-1.104 9.528-3.296 4.368-3.986 4.359-9.989 4.344-10.66-.017-.718-.129-1.825-.271-3.227-.395-3.911-1.056-10.457.138-13.087 1.195-2.63 2.874-4.741 4.498-6.784 3.896-4.898 7.925-9.965 5.137-21.931-1.442-6.194-6.69-10.163-10.839-12.404z"/><path d="m97.485 49.853c.204.032.407.049.61.049 1.146 0 2.27-.513 3.22-1.481 1.03-1.049 1.741-2.531 2.003-4.173.263-1.643.048-3.272-.604-4.59-.708-1.432-1.843-2.339-3.194-2.555-2.694-.433-5.263 2.033-5.832 5.606-.263 1.643-.048 3.272.604 4.59.707 1.432 1.842 2.339 3.193 2.554z"/><ellipse cx="87.829" cy="39.896" rx="5.722" ry="7.575"/><path d="m73.78 48.198c4.246 0 7.7-4.634 7.7-10.329 0-5.696-3.454-10.33-7.7-10.33s-7.7 4.634-7.7 10.33 3.454 10.329 7.7 10.329z"/><path d="m102.484 47.844c-.909 2.53-.094 5.062 1.857 5.764.321.115.659.172 1.002.172.698 0 1.42-.235 2.078-.693.891-.62 1.608-1.593 2.021-2.741.412-1.147.479-2.355.187-3.4-.321-1.15-1.066-2.012-2.044-2.363-1.951-.702-4.19.732-5.101 3.261 0-.001 0 0 0 0z"/><path d="m115.741 52.397c-.321-1.15-1.066-2.012-2.044-2.363-.977-.351-2.1-.161-3.079.521-.891.62-1.608 1.593-2.021 2.74-.412 1.147-.479 2.355-.187 3.401.321 1.15 1.065 2.012 2.043 2.363.334.12.677.178 1.021.178 1.659-.001 3.327-1.344 4.081-3.44.411-1.147.478-2.355.186-3.4z"/></g><g><g fill="#0089ef"><path d="m51.322 26.264c-8.353-3.065-30.377 2.476-33.397 15.439-3.828 16.43 5.424 18.945 9.571 28.075 1.726 3.8.021 13.96-.043 16.749-.08 3.488 1.783 14.347 15.462 12.779 7.532-.863 9.984-6.313 10.442-11.201.468-4.989-1.206-9.941-4.365-13.831-2.356-2.9-5.166-6.451-5.704-7.528-.957-1.914-3.509-11.166 6.221-19.142 8.757-7.178 11.969-17.614 1.813-21.34z"/><ellipse cx="29.497" cy="19.478" rx="3.876" ry="5.456" transform="matrix(.988 -.158 .158 .988 -2.702 4.894)"/><ellipse cx="40.172" cy="15.896" rx="4.722" ry="6.575"/><ellipse cx="54.22" cy="13.869" rx="6.7" ry="9.33"/><ellipse cx="22.037" cy="25.094" rx="2.697" ry="3.796" transform="matrix(.941 -.338 .338 .941 -7.191 8.935)"/><ellipse cx="15.925" cy="30.547" rx="2.697" ry="3.796" transform="matrix(.941 -.338 .338 .941 -9.396 7.189)"/></g><g><path d="m72.679 46.264c8.353-3.065 30.377 2.476 33.397 15.439 3.828 16.43-5.424 18.945-9.571 28.075-1.726 3.8-.021 13.96.043 16.749.08 3.488-1.783 14.347-15.462 12.779-7.532-.863-9.984-6.313-10.442-11.201-.468-4.989 1.206-9.941 4.365-13.831 2.356-2.9 5.166-6.451 5.704-7.528.957-1.914 3.509-11.166-6.221-19.142-8.758-7.178-11.97-17.614-1.813-21.34z" fill="#6dc9f7"/><g><path d="m96.46 105.199c-.509 4.406-3.456 12.472-15.374 11.107-7.532-.863-9.984-6.313-10.442-11.201-.002-.016 0-.032-.002-.048-.078 1.009-.094 2.027.002 3.048.459 4.888 2.91 10.338 10.442 11.201 13.679 1.567 15.542-9.292 15.462-12.779-.008-.341-.041-.794-.088-1.328z" fill="#fff"/></g><g fill="#6dc9f7"><ellipse cx="94.503" cy="39.478" rx="5.456" ry="3.876" transform="matrix(.158 -.988 .988 .158 40.62 126.576)"/><ellipse cx="83.829" cy="35.896" rx="4.722" ry="6.575"/><ellipse cx="69.78" cy="33.869" rx="6.7" ry="9.33"/><ellipse cx="101.964" cy="45.094" rx="3.796" ry="2.697" transform="matrix(.338 -.941 .941 .338 25.032 125.789)"/></g><g><ellipse cx="108.075" cy="50.547" fill="#6dc9f7" rx="3.796" ry="2.697" transform="matrix(.338 -.941 .941 .338 23.945 135.147)"/><g fill="#3a2c60"><path d="m53.451 87.109c-.553-.054-1.038.353-1.089.902-.184 1.957-.668 3.689-1.439 5.149-.258.488-.071 1.094.417 1.352.149.078.309.115.466.115.359 0 .706-.193.885-.533.894-1.693 1.453-3.677 1.662-5.896.051-.549-.352-1.037-.902-1.089z"/><path d="m50.142 48.378c5.977-4.898 9.181-10.951 8.362-15.797-.39-2.309-1.894-5.441-6.838-7.256-5.654-2.077-16.142-.427-23.877 3.749-4.147 2.239-9.395 6.209-10.838 12.401-2.788 11.967 1.241 17.032 5.137 21.932 1.624 2.042 3.303 4.154 4.498 6.784s.533 9.177.138 13.089c-.142 1.4-.253 2.506-.27 3.224-.016.671-.024 6.676 4.344 10.661 2.401 2.191 5.598 3.295 9.528 3.295.866 0 1.768-.054 2.704-.161 3.087-.354 5.614-1.466 7.51-3.307.396-.385.405-1.019.021-1.414-.384-.396-1.018-.406-1.414-.021-1.571 1.526-3.706 2.453-6.344 2.756-4.588.521-8.172-.357-10.656-2.625-3.017-2.753-3.741-7.039-3.693-9.139.015-.639.128-1.765.26-3.067.443-4.379 1.111-10.996-.306-14.118-1.297-2.854-3.054-5.063-4.753-7.2-3.93-4.941-7.323-9.209-4.754-20.234 1.273-5.466 6.054-9.051 9.84-11.095 8.03-4.336 17.796-5.26 22.239-3.632 3.247 1.191 5.115 3.113 5.555 5.712.689 4.077-2.316 9.54-7.657 13.917-9.694 7.946-7.966 17.394-6.481 20.363.174.349.706 1.41 5.822 7.711 2.38 2.929 3.814 6.376 4.147 9.967.05.55.538.958 1.088.904.55-.052.955-.538.903-1.088-.369-3.987-1.955-7.807-4.585-11.045-4.493-5.532-5.403-6.979-5.586-7.344-.051-.092-4.338-9.485 5.956-17.922z"/><path d="m29.901 25.902c.203 0 .408-.016.614-.049 2.7-.432 4.368-3.569 3.797-7.144-.262-1.643-.974-3.125-2.003-4.174-1.119-1.141-2.48-1.646-3.83-1.433-1.352.215-2.486 1.122-3.194 2.554-.652 1.317-.866 2.947-.604 4.589.528 3.304 2.755 5.657 5.22 5.657zm-2.822-9.358c.413-.835 1.022-1.355 1.716-1.466.093-.015.188-.022.282-.022.609 0 1.241.306 1.805.881.741.756 1.258 1.853 1.456 3.088.38 2.386-.599 4.608-2.138 4.854-1.54.242-3.163-1.562-3.543-3.947-.197-1.237-.048-2.44.422-3.388z"/><path d="m40.171 23.472c3.155 0 5.722-3.398 5.722-7.575s-2.567-7.575-5.722-7.575-5.722 3.398-5.722 7.575 2.568 7.575 5.722 7.575zm0-13.151c2.018 0 3.722 2.553 3.722 5.575s-1.704 5.575-3.722 5.575-3.722-2.553-3.722-5.575 1.705-5.575 3.722-5.575z"/><path d="m54.22 3.54c-4.246 0-7.7 4.634-7.7 10.329 0 5.696 3.454 10.33 7.7 10.33s7.7-4.634 7.7-10.33c0-5.695-3.454-10.329-7.7-10.329zm0 18.659c-3.143 0-5.7-3.737-5.7-8.33s2.557-8.329 5.7-8.329 5.7 3.736 5.7 8.329-2.557 8.33-5.7 8.33z"/><path d="m22.639 29.786c.343 0 .686-.058 1.021-.178.977-.352 1.721-1.213 2.043-2.363.292-1.046.226-2.253-.187-3.4-.412-1.148-1.13-2.122-2.021-2.742-.98-.683-2.103-.871-3.08-.521-1.951.701-2.766 3.233-1.856 5.765.753 2.095 2.421 3.439 4.08 3.439zm-1.548-7.322c.111-.04.223-.058.333-.058.376 0 .727.198.928.338.545.38 1.012 1.027 1.282 1.776v.001c.27.749.321 1.546.143 2.185-.085.305-.302.843-.793 1.02-.757.274-1.986-.508-2.543-2.057-.559-1.551-.106-2.934.65-3.205z"/><path d="m17.547 35.06c1.951-.701 2.766-3.233 1.856-5.764 0 0 0 0 0-.001-.91-2.53-3.151-3.965-5.102-3.263-.977.352-1.721 1.213-2.043 2.363-.292 1.046-.226 2.253.187 3.4.412 1.148 1.13 2.122 2.021 2.741.658.458 1.379.694 2.078.694.344.002.682-.054 1.003-.17zm-1.937-2.163c-.545-.38-1.012-1.027-1.282-1.777-.27-.749-.321-1.546-.143-2.185.085-.305.302-.843.793-1.02.099-.036.207-.054.32-.054.748 0 1.739.765 2.223 2.111.557 1.55.104 2.933-.651 3.204-.489.18-1-.098-1.26-.279z"/><path d="m96.211 49.073c-7.735-4.177-18.224-5.823-23.877-3.748-4.944 1.813-6.447 4.947-6.837 7.256-.819 4.845 2.384 10.898 8.361 15.797 10.295 8.438 6.007 17.83 5.961 17.921-.183.366-1.094 1.814-5.586 7.345-3.44 4.236-5.068 9.405-4.585 14.556.383 4.078 2.362 11.074 11.324 12.1.937.107 1.838.161 2.704.161 3.93 0 7.127-1.104 9.527-3.294 4.367-3.985 4.359-9.99 4.345-10.662-.017-.718-.129-1.825-.271-3.227-.395-3.911-1.057-10.457.138-13.086 1.195-2.63 2.874-4.742 4.498-6.784 3.896-4.899 7.925-9.965 5.137-21.932-1.444-6.194-6.692-10.164-10.839-12.403zm4.137 33.09c-1.699 2.137-3.457 4.347-4.753 7.2-1.418 3.121-.749 9.737-.307 14.115.132 1.304.245 2.431.26 3.07.048 2.1-.677 6.387-3.693 9.14-2.484 2.267-6.069 3.146-10.655 2.624-7.181-.822-9.162-6.056-9.56-10.301-.435-4.625 1.037-9.28 4.146-13.106 3.394-4.18 5.353-6.773 5.822-7.711 1.484-2.97 3.213-12.417-6.482-20.363-5.341-4.377-8.346-9.84-7.656-13.917.439-2.599 2.308-4.521 5.555-5.712 4.442-1.627 14.206-.705 22.237 3.631 3.786 2.045 8.567 5.629 9.842 11.096 2.567 11.025-.827 15.293-4.756 20.234z"/><path d="m93.485 45.853c.205.033.41.049.613.049 2.465 0 4.692-2.354 5.22-5.656.262-1.642.048-3.271-.604-4.589-.708-1.432-1.842-2.339-3.192-2.554-1.355-.212-2.713.292-3.831 1.433-1.029 1.049-1.741 2.531-2.003 4.174-.571 3.574 1.097 6.712 3.797 7.143zm-1.823-6.829c.197-1.235.714-2.332 1.456-3.088.564-.575 1.195-.881 1.805-.881.096 0 .189.008.283.022.693.11 1.303.631 1.715 1.466.47.948.62 2.151.423 3.387-.382 2.385-2.005 4.185-3.543 3.948-1.54-.245-2.519-2.468-2.139-4.854z"/><path d="m83.828 43.472c3.155 0 5.722-3.398 5.722-7.575s-2.566-7.575-5.722-7.575-5.722 3.398-5.722 7.575 2.567 7.575 5.722 7.575zm0-13.151c2.018 0 3.722 2.553 3.722 5.575s-1.704 5.575-3.722 5.575-3.722-2.553-3.722-5.575 1.705-5.575 3.722-5.575z"/><path d="m69.779 44.199c4.246 0 7.7-4.634 7.7-10.33 0-5.695-3.454-10.329-7.7-10.329-4.245 0-7.699 4.634-7.699 10.329 0 5.696 3.454 10.33 7.699 10.33zm0-18.659c3.144 0 5.7 3.736 5.7 8.329s-2.557 8.33-5.7 8.33-5.699-3.737-5.699-8.33 2.557-8.329 5.699-8.329z"/><path d="m98.298 47.245c.321 1.15 1.066 2.012 2.044 2.363.321.115.658.172 1.002.172.698 0 1.42-.236 2.077-.694.891-.62 1.608-1.593 2.021-2.74.412-1.147.479-2.355.187-3.401-.321-1.15-1.065-2.012-2.043-2.363-.977-.351-2.101-.161-3.08.521-.891.62-1.608 1.594-2.021 2.742-.413 1.147-.479 2.355-.187 3.4zm2.069-2.725c.269-.75.736-1.397 1.281-1.776.201-.14.552-.338.928-.338.11 0 .223.018.334.058.491.177.708.714.793 1.02.179.639.127 1.436-.144 2.186-.269.749-.736 1.396-1.281 1.776-.26.181-.767.459-1.261.28-.492-.177-.708-.714-.794-1.02-.178-.639-.125-1.436.144-2.186z"/><path d="m109.697 46.033c-.974-.35-2.098-.161-3.08.522-.891.619-1.608 1.593-2.021 2.741-.909 2.53-.094 5.062 1.857 5.764.334.12.677.178 1.02.178 1.659 0 3.327-1.344 4.082-3.441.909-2.531.093-5.062-1.858-5.764zm-.024 5.087c-.559 1.551-1.785 2.331-2.544 2.058-.755-.271-1.208-1.654-.65-3.205.269-.749.736-1.396 1.281-1.776.201-.14.552-.337.929-.337.109 0 .222.017.333.057.754.27 1.208 1.653.651 3.203z"/></g></g></g></g></g></svg>