<svg id="Capa_1" enable-background="new 0 0 512 512" height="512" viewBox="0 0 512 512" width="512" xmlns="http://www.w3.org/2000/svg"><g><path d="m181 300v61h-90v60h-91v91h512v-212z"/><path d="m275.395 94.395.256.256 19.545-19.554-59.777-60.126-37.888 37.888 39.397 41.858c10.371 10.371 27.773 10.4 38.467-.322z"/><path d="m86.151 164.238 79.688 82.134 19.556-19.556c5.684-5.654 15.527-5.654 21.211 0l43.183 43.184h171.211v-7.925c0-43.546-11.587-60.5-35.132-70.732l-47.895 47.895-21.211-21.211 37.568-37.568-16.976-25.461-41.818 41.818-21.211-21.211 46.06-46.06-14.885-22.328-8.69 8.696-.262-.262c-22.434 22.381-58.722 22.386-81.154-.046l-39.088-41.523z"/><path d="m262.835 0 117.029 117.717 117.703-117.717z"/></g></svg>